<svg xmlns="http://www.w3.org/2000/svg" xmlns:xlink="http://www.w3.org/1999/xlink" width="425" zoomAndPan="magnify" viewBox="0 0 318.75 318.749995" height="425" preserveAspectRatio="xMidYMid meet" version="1.0"><defs><clipPath id="dbaf588a77"><path d="M 23 32.585938 L 188 32.585938 L 188 190.9375 L 23 190.9375 Z M 23 32.585938 " clip-rule="nonzero"/></clipPath><clipPath id="4fc0faf355"><path d="M 23.269531 128.300781 L 187.460938 32.886719 L 187.460938 95.722656 L 23.269531 190.226562 Z M 23.269531 128.300781 " clip-rule="nonzero"/></clipPath><clipPath id="2a2cc1d06a"><path d="M 77.675781 2 L 296 2 L 296 316.898438 L 77.675781 316.898438 Z M 77.675781 2 " clip-rule="nonzero"/></clipPath><clipPath id="7d35c26d27"><path d="M 187.460938 32.886719 L 241.125 2.171875 L 295.246094 32.886719 L 295.246094 220.90625 L 132.425781 316.320312 L 77.847656 284.234375 L 77.847656 223.226562 L 131.96875 190.191406 L 131.96875 253.027344 L 241.125 190.226562 L 241.125 64.09375 Z M 187.460938 32.886719 " clip-rule="nonzero"/></clipPath></defs><g clip-path="url(#dbaf588a77)"><g clip-path="url(#4fc0faf355)"><path fill="#bc2031" d="M 5.695312 -15.398438 L 312.804688 -15.398438 L 312.804688 333.695312 L 5.695312 333.695312 Z M 5.695312 -15.398438 " fill-opacity="1" fill-rule="nonzero"/></g></g><g clip-path="url(#2a2cc1d06a)"><g clip-path="url(#7d35c26d27)"><path fill="#414244" d="M 5.695312 -15.398438 L 312.804688 -15.398438 L 312.804688 333.695312 L 5.695312 333.695312 Z M 5.695312 -15.398438 " fill-opacity="1" fill-rule="nonzero"/></g></g></svg>